<?xml version="1.0" encoding="UTF-8" standalone="no"?>
<!-- Created with Inkscape (http://www.inkscape.org/) -->

<svg
   width="68.248268mm"
   height="60.339706mm"
   viewBox="0 0 68.248268 60.339706"
   version="1.1"
   id="svg5"
   xml:space="preserve"
   sodipodi:docname="doublesharps_inactive.svg"
   inkscape:version="1.2 (dc2aedaf03, 2022-05-15)"
   xmlns:inkscape="http://www.inkscape.org/namespaces/inkscape"
   xmlns:sodipodi="http://sodipodi.sourceforge.net/DTD/sodipodi-0.dtd"
   xmlns="http://www.w3.org/2000/svg"
   xmlns:svg="http://www.w3.org/2000/svg"><sodipodi:namedview
     id="namedview7"
     pagecolor="#ffffff"
     bordercolor="#000000"
     borderopacity="0"
     inkscape:showpageshadow="2"
     inkscape:pageopacity="0"
     inkscape:pagecheckerboard="0"
     inkscape:deskcolor="#d1d1d1"
     inkscape:document-units="mm"
     showgrid="false"
     inkscape:zoom="1.6531058"
     inkscape:cx="110.70072"
     inkscape:cy="142.76158"
     inkscape:window-width="1920"
     inkscape:window-height="986"
     inkscape:window-x="-11"
     inkscape:window-y="-11"
     inkscape:window-maximized="1"
     inkscape:current-layer="layer1" /><defs
     id="defs2" /><g
     inkscape:label="Layer 1"
     inkscape:groupmode="layer"
     id="layer1"
     transform="translate(-68.556513,-87.823331)"><g
       font-size="338.41px"
       font-family="'Bitstream Vera Sans'"
       id="g136"
       transform="matrix(0.26458333,0,0,0.26458333,103.2029,86.235829)"><path
         d="m 14.25,6 v 101.8 c 9.5,-8.7 20.2,-13.15 32.04,-13.37 7.4,0 13.7,3.08 19,9.23 4.63,5.72 3.1,11.75 3.3,18.75 0.2,5.57 -0.5,11.26 -3.46,18.47 -1.06,2.97 -0.07,7.15 -3.67,10.54 l -8.56,7.96 C 37.3,170.78 21.65,182.36 6,194 V 6 h 8.25 m 25.7,108.8 c -2.55,-2.98 -5.82,-4.46 -9.84,-4.46 -5.03,0 -9.2,2.86 -12.32,8.6 -2.33,4.44 -3.5,14.94 -3.5,31.48 v 27.36 c 0.22,0.84 6.14,-4.35 17.77,-15.6 6.35,-5.93 10.48,-12.93 12.38,-21 0.86,-3.17 1.28,-6.35 1.28,-9.53 0,-7 -1.9,-12.62 -5.7,-16.86"
         style="line-height:125%"
         id="path132" /><path
         d="m 68.6,6 v 101.8 c 9.53,-8.7 20.2,-13.15 32.05,-13.37 7.4,0 13.75,3.08 19.03,9.23 4.66,5.72 7.1,12.1 7.3,19.08 0.2,5.52 -1.16,11.88 -4.12,19.1 -1.06,2.96 -3.4,6.14 -6.98,9.53 l -8.57,7.96 c -15.6,11.45 -31.3,23 -46.9,34.67 V 6 h 8.25 m 25.7,108.8 c -2.53,-2.98 -5.8,-4.46 -9.83,-4.46 -5.06,0 -9.2,2.86 -12.36,8.6 -2.32,4.44 -3.5,14.94 -3.5,31.48 v 27.36 c 0.22,0.84 6.15,-4.35 17.78,-15.6 6.35,-5.93 10.47,-12.93 12.38,-21 0.84,-3.17 1.27,-6.35 1.27,-9.53 0,-7 -1.9,-12.62 -5.7,-16.86"
         style="line-height:125%"
         id="path134" /></g><path
       d="m 94.642718,148.13281 c -3.193743,-0.51208 -6.440387,-0.51208 -9.665963,-0.50705 -0.06902,-2.41152 0.308274,-4.97565 -0.627393,-7.23892 -0.622957,-1.50604 -1.809466,-2.69543 -2.864352,-3.91756 -1.68333,1.53795 -3.065962,3.56817 -3.19844,5.92982 -0.129818,1.73825 -0.03451,3.48489 -0.06409,5.22666 -3.225176,0.0504 -6.484171,-0.11752 -9.665966,0.53728 0.61359,-3.23271 0.474078,-6.54047 0.529784,-9.81397 2.455921,-0.0672 5.08427,0.29381 7.365152,-0.79752 1.345987,-0.64473 2.485582,-1.65379 3.627182,-2.61434 -1.485992,-1.71961 -3.415794,-3.23472 -5.74972,-3.37726 -1.743097,-0.13432 -3.495558,-0.0335 -5.242614,-0.0672 -0.110097,-3.24949 0.26177,-6.54096 -0.398324,-9.74949 3.14543,0.58093 6.353994,0.43149 9.534605,0.47348 0.04766,2.31447 -0.206064,4.71323 0.43349,6.9419 0.487881,1.70081 1.816812,3.00924 2.926877,4.35208 1.567004,-1.39523 2.980267,-3.14574 3.239128,-5.33562 0.234328,-1.98204 0.04766,-3.97297 0.154465,-5.95836 3.203573,-0.084 6.505776,0.33075 9.606608,-0.70518 -0.462736,3.30104 -0.50628,6.65245 -0.47029,9.9817 -2.286486,0.0672 -4.68529,-0.19309 -6.859136,0.59268 -1.651267,0.59772 -2.949567,1.90497 -4.264546,3.05927 1.425685,1.49093 3.143051,2.86417 5.267804,3.06715 1.947979,0.18638 3.90425,0.10075 5.855878,0.13432 0.04765,3.26411 -0.110106,6.56431 0.529612,9.78375 z"
       id="path2133"
       style="fill:#000000;stroke-width:4.39478" /><rect
       style="fill:#000000;stroke:#ffffff;stroke-width:0.52098;stroke-linecap:round;stroke-opacity:0;fill-opacity:0.51351351"
       id="rect358"
       width="87.558846"
       height="3.6620817"
       x="110.84592"
       y="18.76215"
       transform="matrix(0.75087738,0.66044164,-0.6418117,0.76686227,0,0)" /></g></svg>
