<?xml version="1.0" encoding="UTF-8" standalone="no"?>
<!-- Created with Inkscape (http://www.inkscape.org/) -->

<svg
   width="68.248268mm"
   height="60.339706mm"
   viewBox="0 0 68.248268 60.339706"
   version="1.1"
   id="svg5"
   xml:space="preserve"
   sodipodi:docname="shownaturals.svg"
   inkscape:version="1.2 (dc2aedaf03, 2022-05-15)"
   inkscape:export-filename="hidenaturals.svg"
   inkscape:export-xdpi="96"
   inkscape:export-ydpi="96"
   xmlns:inkscape="http://www.inkscape.org/namespaces/inkscape"
   xmlns:sodipodi="http://sodipodi.sourceforge.net/DTD/sodipodi-0.dtd"
   xmlns="http://www.w3.org/2000/svg"
   xmlns:svg="http://www.w3.org/2000/svg"><sodipodi:namedview
     id="namedview7"
     pagecolor="#ffffff"
     bordercolor="#000000"
     borderopacity="0.25"
     inkscape:showpageshadow="2"
     inkscape:pageopacity="0.0"
     inkscape:pagecheckerboard="0"
     inkscape:deskcolor="#d1d1d1"
     inkscape:document-units="mm"
     showgrid="false"
     inkscape:zoom="1.6531058"
     inkscape:cx="109.49088"
     inkscape:cy="142.76159"
     inkscape:window-width="1920"
     inkscape:window-height="986"
     inkscape:window-x="-11"
     inkscape:window-y="-11"
     inkscape:window-maximized="1"
     inkscape:current-layer="layer1" /><defs
     id="defs2" /><g
     inkscape:label="Layer 1"
     inkscape:groupmode="layer"
     id="layer1"
     transform="translate(-68.556513,-87.823331)"><path
       d="m 130.24792,120.58809 c 0,1.70238 -0.49521,3.33302 -1.85371,5.5214 -1.43924,2.31851 -2.65078,3.64546 -4.24723,5.20584 v -10.1618 c 0.36289,-1.18136 0.89816,-2.13769 1.60794,-2.87188 0.70747,-0.73072 1.42415,-1.09888 2.15002,-1.09888 1.19905,0 1.95937,0.87619 2.28786,2.62323 0.0365,0.1421 0.0546,0.40285 0.0546,0.7822 z m -0.17224,-7.10585 c -0.99002,0 -1.99613,0.3525 -3.02062,1.05972 -1.02447,0.70498 -1.99381,1.64912 -2.90805,2.82455 V 95.836814 h -1.29322 v 36.875736 c 0,1.04182 0.22051,1.56328 0.66154,1.56328 0.25499,0 0.57179,-0.27528 1.04516,-0.63896 1.33994,-1.03062 2.17515,-1.71962 3.08261,-2.44631 1.0351,-0.82921 2.20057,-1.79682 3.74189,-3.69179 1.06353,-1.37675 1.83304,-2.76535 2.31081,-4.1628 0.47551,-1.40046 0.71442,-2.78605 0.71442,-4.1628 0,-2.03706 -0.42037,-3.48488 -1.26107,-4.34049 -0.95098,-0.8997 -1.97777,-1.35011 -3.07344,-1.35011 z"
       id="path2117"
       style="fill:#000000;stroke-width:2.60787" /><path
       d="m 77.968817,125.09189 v -9.76531 l 4.617824,-1.14593 v 9.71548 z m 9.092487,-2.3624 -3.17475,0.81788 v -9.71548 l 3.17475,-0.79718 v -4.03565 l -3.17475,0.79717 v -9.926793 h -1.299913 v 10.227843 l -4.617824,1.19363 v -9.65271 h -1.226034 v 10.02014 l -3.174751,0.79929 v 4.04398 l 3.174751,-0.79716 v 9.69673 l -3.174751,0.79513 v 4.02735 l 3.174751,-0.79718 v 9.8707 h 1.226034 v -10.22361 l 4.617824,-1.14177 v 9.60289 h 1.299913 v -9.96413 l 3.17475,-0.7992 z"
       id="path2109"
       style="fill:#000000;stroke-width:2.18934" /><g
       style="fill:#000000"
       id="g24807"
       transform="matrix(0.05045472,0,0,0.07233553,91.628443,101.72834)"><g
         id="g24797">
	<g
   id="g24795">
		<path
   d="M 508.933,248.353 402.267,141.687 c -4.267,-4.053 -10.987,-3.947 -15.04,0.213 -3.947,4.16 -3.947,10.667 0,14.827 l 88.427,88.427 H 36.4 l 88.427,-88.427 c 4.053,-4.267 3.947,-10.987 -0.213,-15.04 -4.16,-3.947 -10.667,-3.947 -14.827,0 L 3.12,248.353 c -4.16,4.16 -4.16,10.88 0,15.04 L 109.787,370.06 c 4.267,4.053 10.987,3.947 15.04,-0.213 3.947,-4.16 3.947,-10.667 0,-14.827 L 36.4,266.593 H 475.547 L 387.12,355.02 c -4.267,4.053 -4.373,10.88 -0.213,15.04 4.053,4.267 10.88,4.373 15.04,0.213 0.107,-0.107 0.213,-0.213 0.213,-0.213 L 508.827,263.393 c 4.266,-4.053 4.266,-10.88 0.106,-15.04 z"
   id="path24793" />
	</g>
</g></g></g></svg>
