<?xml version="1.0" encoding="UTF-8"?>
<svg id="svg5" xmlns="http://www.w3.org/2000/svg" viewBox="0 0 193.46 171.04">
  <path id="path2117" d="m101.09,105.5c0,6.15-1.79,12.04-6.7,19.95-5.2,8.38-9.58,13.17-15.34,18.81v-36.71c1.31-4.27,3.24-7.72,5.81-10.38,2.56-2.64,5.15-3.97,7.77-3.97,4.33,0,7.08,3.17,8.27,9.48.13.51.2,1.46.2,2.83h0Zm1.33-25.67c-3.9,0-7.87,1.27-11.91,3.83-4.04,2.55-7.86,5.96-11.46,10.2V16.08h-5.1v133.23c0,3.76.87,5.65,2.61,5.65,1.01,0,2.25-.99,4.12-2.31,5.28-3.72,8.57-6.21,12.15-8.84,4.08-3,8.68-6.49,14.75-13.34,4.19-4.97,7.23-9.99,9.11-15.04,1.87-5.06,2.82-10.07,2.82-15.04,0-7.36-1.66-12.59-4.97-15.68-3.75-3.25-7.8-4.88-12.12-4.88h0Z"/>
</svg>