<?xml version="1.0" encoding="UTF-8" standalone="no"?>
<!-- Created with Inkscape (http://www.inkscape.org/) -->

<svg
   width="68.248268mm"
   height="60.339706mm"
   viewBox="0 0 68.248268 60.339706"
   version="1.1"
   id="svg5"
   xml:space="preserve"
   sodipodi:docname="hidecolours.svg"
   inkscape:version="1.2 (dc2aedaf03, 2022-05-15)"
   xmlns:inkscape="http://www.inkscape.org/namespaces/inkscape"
   xmlns:sodipodi="http://sodipodi.sourceforge.net/DTD/sodipodi-0.dtd"
   xmlns="http://www.w3.org/2000/svg"
   xmlns:svg="http://www.w3.org/2000/svg"><sodipodi:namedview
     id="namedview7"
     pagecolor="#ffffff"
     bordercolor="#000000"
     borderopacity="0.25"
     inkscape:showpageshadow="2"
     inkscape:pageopacity="0.0"
     inkscape:pagecheckerboard="0"
     inkscape:deskcolor="#d1d1d1"
     inkscape:document-units="mm"
     showgrid="true"
     inkscape:zoom="2.8284272"
     inkscape:cx="64.700269"
     inkscape:cy="110.66221"
     inkscape:window-width="1920"
     inkscape:window-height="986"
     inkscape:window-x="-11"
     inkscape:window-y="-11"
     inkscape:window-maximized="1"
     inkscape:current-layer="layer1"><inkscape:grid
       type="xygrid"
       id="grid1596" /></sodipodi:namedview><defs
     id="defs2" /><g
     inkscape:label="Layer 1"
     inkscape:groupmode="layer"
     id="layer1"
     transform="translate(-68.556513,-87.823331)"><path
       id="path11058"
       d="M 107.14402,129.68681 V 92.0853"
       fill="none"
       stroke="#000000"
       stroke-width="1.67924"
       style="stroke:#000000;stroke-opacity:0;fill:#000000;fill-opacity:1" /><path
       style="fill:#000000;stroke:#000000;stroke-width:0.0207668;stroke-linecap:round;stroke-opacity:0;fill-opacity:1"
       d="m 82.21005,134.47729 c 0,-3.1731 -0.03867,-5.76928 -0.08593,-5.76928 -0.04726,0 -0.850842,0.19723 -1.785728,0.43828 -0.934887,0.24106 -1.736883,0.43887 -1.782213,0.43957 -0.04533,6.2e-4 -0.08242,-1.03133 -0.08242,-2.29342 v -2.2947 l 1.868147,-0.46559 1.868147,-0.46558 v -5.76368 c 0,-5.43784 -0.01093,-5.76041 -0.192309,-5.7062 -0.46399,0.13866 -3.324157,0.83647 -3.428504,0.83647 -0.07703,0 -0.115478,-0.76411 -0.115478,-2.29471 v -2.29469 l 1.868148,-0.46559 1.868146,-0.46559 v -5.86615 -5.866159 h 0.659347 0.659346 v 5.659379 c 0,3.11267 0.01681,5.6594 0.03736,5.6594 0.03448,0 4.215919,-1.07645 5.154993,-1.32708 l 0.412091,-0.10996 v -5.98482 -5.984824 h 0.714291 0.714296 v 5.831622 c 0,5.502572 0.01057,5.828392 0.192307,5.774162 0.46399,-0.13866 3.324161,-0.83647 3.428502,-0.83647 0.07706,0 0.115478,0.761 0.115478,2.28436 v 2.28436 l -1.510997,0.37026 c -0.831052,0.20365 -1.671725,0.41429 -1.868154,0.46809 l -0.357147,0.0979 v 5.76411 c 0,3.17027 0.01233,5.76344 0.02749,5.76262 0.01515,-6.1e-4 0.856755,-0.21969 1.870316,-0.48639 l 1.842827,-0.48491 -0.0296,2.3209 -0.0296,2.3209 -1.8132,0.45197 -1.8132,0.45196 -0.02843,5.84548 -0.02843,5.84546 H 89.846629 89.1333 v -5.60445 c 0,-3.71579 -0.03756,-5.60444 -0.11146,-5.60444 -0.06131,0 -1.322305,0.30287 -2.802221,0.67304 l -2.690756,0.67303 v 5.97537 5.97538 h -0.659346 -0.659346 z m 4.258277,-11.50859 2.664857,-0.68847 V 116.538 c 0,-3.80895 -0.03752,-5.74222 -0.11146,-5.74222 -0.06131,0 -1.322305,0.30286 -2.80222,0.67302 l -2.690757,0.67304 v 5.7556 c 0,4.53009 0.02925,5.75603 0.137364,5.75767 0.07555,0.001 1.33655,-0.30774 2.802221,-0.68641 z"
       id="path524" /><path
       style="fill:#000000;stroke:#000000;stroke-width:0.0174288;stroke-linecap:round;stroke-opacity:0;fill-opacity:1"
       d="m 109.4221,126.5544 c -2.36085,-0.18178 -4.52856,-0.95852 -6.09457,-2.18384 -2.02281,-1.58274 -3.02421,-4.13562 -2.63369,-6.71402 0.94732,-6.25452 8.25005,-11.92914 16.21847,-12.60265 3.01734,-0.25502 6.13967,0.47179 8.13095,1.89274 0.71545,0.51054 1.6691,1.52523 2.07306,2.20575 1.43106,2.41077 1.35165,5.28784 -0.22825,8.26979 -1.23874,2.33799 -3.67446,4.78539 -6.34135,6.37174 -1.68453,1.002 -4.56982,2.0799 -6.63342,2.47813 -0.82734,0.15967 -3.22044,0.40626 -3.5228,0.36302 -0.0508,-0.007 -0.48651,-0.0436 -0.9684,-0.0807 z"
       id="path526" /></g></svg>
