<?xml version="1.0" encoding="UTF-8"?>
<svg id="svg5" xmlns="http://www.w3.org/2000/svg" viewBox="0 0 193.46 171.04">
  <defs>
    <style>
      .cls-1 {
        fill: none;
        stroke: #000;
        stroke-miterlimit: 10;
        stroke-width: 9px;
      }
    </style>
  </defs>
  <g id="layer1">
    <g>
      <line x1="42.73" y1="85.67" x2="150.73" y2="85.37"/>
      <g>
        <line class="cls-1" x1="42.73" y1="85.67" x2="110.61" y2="85.48"/>
        <g>
          <path d="m103.25,39.99c11.29,18.95,28.84,33.83,47.48,45.38-18.76,11.48-35.48,27-47.23,45.64l-11.23.03c11.73-18.08,25.87-33.79,43.35-45.63-17.55-11.92-32.33-27.73-43.79-45.39l11.42-.03Z"/>
          <path d="m76.17,40.07c11.3,18.95,28.84,33.83,47.48,45.38-18.76,11.48-35.48,27-47.22,45.64l-11.23.03c11.73-18.08,25.88-33.79,43.34-45.63-17.53-11.92-32.32-27.73-43.78-45.39l11.42-.03Z"/>
        </g>
      </g>
    </g>
  </g>
</svg>