<?xml version="1.0" encoding="UTF-8"?>
<svg id="svg5" xmlns="http://www.w3.org/2000/svg" viewBox="0 0 193.46 171.04">
  <defs>
    <style>
      .cls-1 {
        fill: none;
        stroke: #000;
        stroke-miterlimit: 10;
        stroke-width: 9px;
      }
    </style>
  </defs>
  <g id="layer1">
    <g>
      <line x1="42.73" y1="85.67" x2="150.73" y2="85.37"/>
      <g>
        <line class="cls-1" x1="82.85" y1="85.56" x2="150.73" y2="85.37"/>
        <g>
          <path d="m89.96,40.03c-11.19,19.02-28.64,33.99-47.23,45.64,18.82,11.37,35.64,26.79,47.48,45.38l11.23-.03c-11.84-18.01-26.06-33.64-43.61-45.39,17.48-12.02,32.17-27.92,43.53-45.63l-11.42.03Z"/>
          <path d="m117.04,39.95c-11.19,19.02-28.64,33.99-47.22,45.64,18.82,11.37,35.63,26.79,47.48,45.38l11.23-.03c-11.83-18.01-26.07-33.64-43.6-45.39,17.46-12.02,32.16-27.92,43.53-45.63l-11.42.03Z"/>
        </g>
      </g>
    </g>
  </g>
</svg>