<?xml version="1.0" encoding="UTF-8" standalone="no"?>
<!-- Created with Inkscape (http://www.inkscape.org/) -->

<svg
   width="68.248268mm"
   height="60.339706mm"
   viewBox="0 0 68.248268 60.339706"
   version="1.1"
   id="svg5"
   xml:space="preserve"
   sodipodi:docname="showcolours.svg"
   inkscape:version="1.2 (dc2aedaf03, 2022-05-15)"
   xmlns:inkscape="http://www.inkscape.org/namespaces/inkscape"
   xmlns:sodipodi="http://sodipodi.sourceforge.net/DTD/sodipodi-0.dtd"
   xmlns="http://www.w3.org/2000/svg"
   xmlns:svg="http://www.w3.org/2000/svg"><sodipodi:namedview
     id="namedview7"
     pagecolor="#ffffff"
     bordercolor="#000000"
     borderopacity="0.25"
     inkscape:showpageshadow="2"
     inkscape:pageopacity="0.0"
     inkscape:pagecheckerboard="0"
     inkscape:deskcolor="#d1d1d1"
     inkscape:document-units="mm"
     showgrid="true"
     inkscape:zoom="2.0000001"
     inkscape:cx="54.999999"
     inkscape:cy="86.999998"
     inkscape:window-width="1920"
     inkscape:window-height="986"
     inkscape:window-x="-11"
     inkscape:window-y="-11"
     inkscape:window-maximized="1"
     inkscape:current-layer="layer1"><inkscape:grid
       type="xygrid"
       id="grid1596" /></sodipodi:namedview><defs
     id="defs2" /><g
     inkscape:label="Layer 1"
     inkscape:groupmode="layer"
     id="layer1"
     transform="translate(-68.556513,-87.823331)"><g
       transform="matrix(0.13960609,0,0,0.13960609,85.061634,71.385641)"
       id="g444"><path
         d="M -62,159.397 C -62,151.446 -55.5542,145 -47.6029,145 H 96.6029 C 104.554,145 111,151.446 111,159.397 V 304.603 C 111,312.554 104.554,319 96.6029,319 H -47.6029 C -55.5542,319 -62,312.554 -62,304.603 Z"
         fill="#e6a002"
         fill-rule="evenodd"
         id="path436" /><path
         d="M 137,159.397 C 137,151.446 143.446,145 151.397,145 h 144.206 c 7.951,0 14.397,6.446 14.397,14.397 V 304.603 C 310,312.554 303.554,319 295.603,319 H 151.397 C 143.446,319 137,312.554 137,304.603 Z"
         fill="#009e73"
         fill-rule="evenodd"
         id="path438" /><path
         d="M -62,360.397 C -62,352.446 -55.5542,346 -47.6029,346 H 96.6029 C 104.554,346 111,352.446 111,360.397 V 505.603 C 111,513.554 104.554,520 96.6029,520 H -47.6029 C -55.5542,520 -62,513.554 -62,505.603 Z"
         fill="#57b4e9"
         fill-rule="evenodd"
         id="path440" /><path
         d="M 137,360.397 C 137,352.446 143.446,346 151.397,346 h 144.206 c 7.951,0 14.397,6.446 14.397,14.397 V 505.603 C 310,513.554 303.554,520 295.603,520 H 151.397 C 143.446,520 137,513.554 137,505.603 Z"
         fill="#c776a3"
         fill-rule="evenodd"
         id="path442" /></g></g></svg>
