<?xml version="1.0" encoding="UTF-8"?>
<svg id="Layer_1" data-name="Layer 1" xmlns="http://www.w3.org/2000/svg" viewBox="0 0 2400 1600">
  <defs>
    <style>
      .cls-1 {
        stroke: #009e73;
      }

      .cls-1, .cls-2, .cls-3 {
        fill: none;
        stroke-linecap: round;
        stroke-linejoin: round;
        stroke-width: 2px;
      }

      .cls-2 {
        stroke: #e69f00;
      }

      .cls-3 {
        stroke: #56b4e9;
      }
    </style>
  </defs>
  <g id="sketch-017ca223">
    <path class="cls-2" d="m0,1199.36h0l24.02-21.68,32.23-31.31,65.62-64.25,24.61-21.67,20.51-16.15,18.16-12.5,15.82-9.32,14.65-7.2,13.48-5.33,12.89-3.88,12.3-2.56,11.72-1.38,11.72-.33,11.72.72,11.72,1.76,12.3,2.96,12.89,4.28,13.48,5.73,14.06,7.28,15.23,9.3,16.99,11.94,19.34,15.35,22.85,20.13,29.3,28,84.96,82.61,23.44,19.85,19.34,14.5,16.99,11.07,15.23,8.43,14.06,6.43,13.48,4.87,12.89,3.43,12.3,2.11,11.72.95,11.72-.1,11.72-1.15,11.72-2.18,12.3-3.39,12.89-4.73,13.48-6.18,14.65-8.07,15.82-10.19,17.58-12.93,20.51-16.94,24.61-22.38,33.98-33.2,58.59-57.43,25.2-22.4,21.09-16.79,18.16-12.66,16.41-9.79,14.65-7.29,13.48-5.41,12.89-3.97,12.3-2.64,11.72-1.46,11.72-.41,11.72.63,11.72,1.68,12.3,2.87,12.3,3.98,13.48,5.59,14.06,7.14,15.23,9.15,16.99,11.8,19.34,15.21,22.27,19.46,28.12,26.71,92.58,89.66,22.27,18.51,19.34,14.19,16.99,10.75,15.23,8.12,14.06,6.12,12.89,4.39,12.3,3.06,12.3,1.93,11.72.77,11.72-.28,11.72-1.32,11.72-2.36,12.3-3.57,12.89-4.91,13.48-6.36,14.65-8.25,16.41-10.78,18.16-13.63,21.09-17.72,25.78-23.78,37.5-36.95,48.63-47.59,25.78-23.03,21.09-16.88,18.16-12.75,16.41-9.88,14.65-7.38,13.48-5.5,12.89-4.06,12.3-2.73,11.72-1.54,11.45-.5,11.99.55,11.72,1.59,12.3,2.78,12.3,3.89,12.89,5.24,14.06,7,15.23,9.01,16.99,11.65,18.75,14.59,22.27,19.29,27.54,26,99.02,95.56,21.68,17.71,18.75,13.48,16.41,10.16,15.23,7.93,14.06,5.93,12.89,4.21,12.3,2.88,11.72,1.69,11.72.65,11.72-.4,11.72-1.45,12.3-2.63,12.3-3.75,12.89-5.09,8.79-4.12"/>
  </g>
  <g id="sketch-017ca223-2">
    <path class="cls-2" d="m0,1190.06h0l9.96-5.44,11.72-7.92,13.48-10.83,17.58-16.16,58.59-55.69,14.06-10.37,11.72-6.93,9.96-4.49,9.38-2.95,8.79-1.59,8.2-.43,8.2.6,8.2,1.62,8.79,2.83,9.38,4.22,10.55,6.11,12.3,8.76,14.65,12.3,19.92,18.92,43.95,42.42,15.23,12.25,12.3,8.17,10.55,5.53,9.96,3.84,8.79,2.2,8.2,1.01,8.2-.02,8.2-1.04,8.79-2.24,9.38-3.62,9.96-5.15,11.13-7.21,12.89-9.99,16.41-14.67,26.95-26.55,25.78-24.65,15.82-13.08,12.89-8.85,11.13-6.04,9.96-4,8.79-2.34,8.79-1.19,8.2-.05,8.2.98,8.79,2.17,8.79,3.29,9.96,5,11.13,7.06,12.89,9.85,15.82,14,24.61,24.11,28.71,27.69,16.41,13.68,12.89,8.92,11.13,6.12,9.96,4.07,8.79,2.41,8.79,1.26,8.2.11,8.2-.91,8.79-2.1,8.79-3.22,9.96-4.93,11.13-6.99,12.89-9.78,15.82-13.94,24.02-23.49,29.88-28.86,16.41-13.67,12.89-8.91,11.13-6.11,9.96-4.06,8.79-2.4,8.79-1.25,8.2-.11,8.2.92,8.79,2.11,8.79,3.23,9.96,4.94,11.13,7,12.89,9.79,15.82,13.95,24.02,23.49,29.88,28.85,16.41,13.66,12.89,8.91,11.13,6.1,9.96,4.05,8.79,2.4,8.79,1.24,8.2.1,8.2-.93,8.79-2.11,8.79-3.23,9.96-4.95,11.13-7.01,12.89-9.8,15.82-13.95,24.02-23.49,29.88-28.84,16.41-13.66,12.89-8.9,11.13-6.09,9.96-4.05,8.79-2.39,8.79-1.24,8.2-.09,8.2.93,8.79,2.12,8.79,3.24,9.96,4.96,11.13,7.01,12.89,9.8,15.82,13.96,24.02,23.5,29.88,28.84,16.41,13.65,12.89,8.89,11.13,6.08,9.96,4.04,8.79,2.38,8.79,1.23,8.2.09,8.2-.94,8.79-2.13,8.79-3.25,9.96-4.96,11.13-7.02,12.89-9.81,15.82-13.96,24.02-23.5,29.88-28.83,16.41-13.64,12.89-8.88,11.13-6.08,9.96-4.03,8.79-2.37,8.79-1.22,8.2-.08,8.2.95,8.79,2.13,8.79,3.26,9.96,4.97,11.13,7.03,12.89,9.82,15.82,13.97,24.02,23.51,29.3,28.3,16.41,13.71,12.89,8.96,11.13,6.15,9.96,4.1,8.79,2.44,8.79,1.29,8.2.15,8.2-.88,8.79-2.06,8.79-3.19,9.96-4.9,11.13-6.96,12.89-9.75,15.82-13.91,24.02-23.47,29.88-28.88,16.41-13.71,12.89-8.95,11.13-6.14,9.96-4.1,8.79-2.44,8.79-1.28,8.2-.14,8.2.89,8.79,2.07,8.79,3.2,9.96,4.91,11.13,6.96,12.89,9.76,15.82,13.92,24.02,23.47,29.88,28.88,16.41,13.7,12.89,8.94,9.38,5.27"/>
  </g>
  <g id="sketch-017ca223-3">
    <path class="cls-3" d="m0,1176.3h0l7.03-.34,7.03-1.46,7.62-2.8,8.2-4.34,9.38-6.45,11.72-9.84,17.58-16.99,24.02-23.02,12.3-9.69,9.96-6.06,8.2-3.55,7.62-2,7.03-.69,7.03.44,7.03,1.56,7.62,2.9,8.2,4.44,9.38,6.54,11.72,9.93,18.16,17.63,22.85,21.85,12.3,9.69,9.96,6.06,8.2,3.54,7.62,2,7.03.69,7.03-.44,7.03-1.56,7.62-2.91,8.2-4.44,9.38-6.55,12.3-10.47,19.34-18.85,21.09-20.08,12.3-9.68,9.96-6.05,8.2-3.53,7.62-1.99,7.03-.68,7.03.45,7.03,1.57,7.62,2.91,8.2,4.45,9.38,6.55,12.3,10.48,19.34,18.85,21.09,20.08,12.3,9.67,9.96,6.04,8.2,3.53,7.62,1.99,7.03.67,7.03-.46,7.03-1.57,7.62-2.92,8.2-4.46,9.38-6.56,12.3-10.48,19.34-18.86,21.09-20.07,12.3-9.67,9.96-6.04,8.2-3.52,7.62-1.98,7.03-.67,7.03.46,7.03,1.58,7.62,2.93,8.2,4.46,9.38,6.56,12.3,10.49,19.34,18.86,21.09,20.07,12.3,9.66,9.96,6.03,8.2,3.52,7.62,1.97,7.03.66,7.03-.47,7.03-1.59,7.62-2.93,8.2-4.47,9.38-6.57,12.3-10.49,19.34-18.86,21.09-20.06,12.3-9.65,9.96-6.02,8.2-3.51,7.62-1.97,7.03-.66,7.03.47,7.03,1.59,7.62,2.94,8.2,4.47,9.96,7.03,12.3,10.58,19.92,19.5,19.92,18.89,12.3,9.65,9.96,6.02,8.2,3.5,7.62,1.96,7.03.65,7.03-.48,7.03-1.6,7.62-2.94,8.2-4.48,9.96-7.04,12.3-10.59,19.92-19.5,19.92-18.88,12.3-9.64,9.96-6.01,8.2-3.5,7.62-1.95,7.03-.65,7.03.49,7.03,1.6,7.62,2.95,8.2,4.49,9.96,7.04,12.3,10.59,19.92,19.5,19.92,18.88,12.3,9.63,9.96,6,8.2,3.49,7.62,1.95,7.03.64,7.03-.49,7.03-1.61,7.62-2.96,8.2-4.49,9.96-7.05,12.3-10.6,20.51-20.09,19.92-18.79,12.3-9.52,9.38-5.59,8.2-3.48,7.62-1.94,7.03-.63,7.03.5,7.03,1.61,7.62,2.96,8.2,4.5,9.96,7.06,12.3,10.6,20.51,20.09,19.34,18.29,12.3,9.62,9.38,5.69,8.2,3.58,7.62,2.03,7.03.72,7.03-.41,7.03-1.53,7.62-2.87,8.2-4.41,9.38-6.51,11.72-9.9,18.16-17.61,22.85-21.87,12.3-9.72,9.96-6.09,8.2-3.57,7.62-2.03,7.03-.72,7.03.41,7.03,1.53,7.62,2.88,8.2,4.42,9.38,6.52,11.72,9.91,18.16,17.62,22.85,21.86,12.3,9.71,9.96,6.08,8.2,3.57,7.62,2.02,7.03.71,7.03-.42,7.03-1.54,7.62-2.89,8.2-4.42,9.38-6.53,11.72-9.92,18.16-17.62,22.85-21.86,12.3-9.7,9.96-6.08,8.2-3.56,7.62-2.02,7.03-.7,7.03.43,7.03,1.55,7.62,2.89,8.2,4.43,9.38,6.53,11.72,9.92,18.16,17.62,22.85,21.86,12.3,9.7,9.96,6.07,8.2,3.55,7.62,2.01,7.03.7,7.03-.43,7.03-1.55,7.62-2.9,8.2-4.43,9.38-6.54,11.72-9.93,18.16-17.62,22.85-21.85,12.3-9.69,9.96-6.06,8.2-3.55,7.62-2,7.03-.69,7.03.44,7.03,1.56,7.62,2.9,8.2,4.44,9.38,6.54,11.72,9.93,18.16,17.63"/>
  </g>
  <g id="sketch-017ca223-4">
    <path class="cls-2" d="m0,1160.29h0l7.03,3.11,6.45,1.61,5.86.38,5.86-.66,5.86-1.69,6.45-2.98,7.62-4.87,9.96-8.15,15.82-15.31,17.58-16.6,9.96-7.47,8.2-4.45,6.45-2.21,5.86-.95,5.86.09,5.86,1.13,6.45,2.4,7.03,3.9,8.79,6.47,11.72,10.61,31.05,29.14,8.79,5.88,7.62,3.54,6.45,1.71,5.6.48,6.11-.57,5.86-1.6,6.45-2.88,7.62-4.77,9.38-7.54,14.65-14.02,19.92-18.94,9.96-7.46,8.2-4.44,6.45-2.2,5.86-.94,5.86.1,5.86,1.14,6.45,2.41,7.03,3.91,8.79,6.48,11.72,10.62,30.47,28.68,9.38,6.32,7.62,3.53,6.45,1.7,5.86.47,5.86-.58,5.86-1.61,6.45-2.89,7.62-4.78,9.38-7.55,14.65-14.03,19.92-18.93,9.96-7.45,8.2-4.43,6.45-2.19,5.86-.93,5.86.11,5.86,1.15,6.45,2.42,7.03,3.92,8.79,6.49,11.72,10.63,30.47,28.66,9.38,6.31,7.62,3.52,6.45,1.69,5.86.46,5.86-.59,5.86-1.62,6.45-2.9,7.62-4.79,9.38-7.56,14.65-14.03,19.92-18.92,9.96-7.44,8.2-4.41,6.45-2.18,5.86-.92,5.86.12,5.86,1.16,6.45,2.43,7.03,3.93,8.79,6.5,11.72,10.63,30.47,28.65,9.38,6.29,7.62,3.51,6.45,1.68,5.86.45,5.86-.6,5.86-1.63,6.45-2.91,7.62-4.8,9.38-7.57,14.65-14.04,19.92-18.91,9.96-7.43,7.62-4.15,7.03-2.43,5.86-.91,5.86.13,5.86,1.17,6.45,2.44,7.03,3.94,8.79,6.51,11.72,10.64,30.47,28.64,9.38,6.28,7.62,3.49,6.45,1.67,5.86.44,5.86-.61,5.86-1.63,6.45-2.92,7.62-4.81,9.38-7.58,14.65-14.05,19.92-18.9,9.96-7.42,7.62-4.14,7.03-2.42,5.86-.9,5.86.14,5.86,1.18,6.45,2.45,7.03,3.95,8.79,6.52,11.72,10.65,30.47,28.63,9.38,6.27,7.62,3.48,6.45,1.66,5.86.43,5.86-.62,5.86-1.64,6.45-2.93,7.62-4.82,9.38-7.59,14.65-14.05,19.92-18.9,9.96-7.4,7.62-4.13,7.03-2.41,5.86-.89,5.86.15,5.86,1.19,6.45,2.46,7.03,3.96,8.79,6.53,11.72,10.66,29.88,28.17,9.38,6.38,7.62,3.59,6.45,1.76,5.86.52,5.86-.52,5.86-1.55,6.45-2.84,7.62-4.73,9.38-7.5,14.06-13.41,21.09-20.06,9.96-7.39,7.62-4.11,7.03-2.4,5.86-.88,5.86.16,5.86,1.2,6.45,2.47,7.03,3.97,8.79,6.54,11.72,10.67,29.88,28.16,9.38,6.37,7.62,3.58,6.45,1.75,5.8.51,5.92-.53,5.86-1.56,6.45-2.85,7.62-4.74,9.38-7.51,14.06-13.41,21.09-20.05,9.96-7.38,7.62-4.1,6.45-2.24,5.86-.98,5.86.07,5.86,1.11,6.45,2.38,7.03,3.87,8.79,6.44,11.72,10.59,31.05,29.17,9.38,6.24,7.62,3.45,6.45,1.63,5.86.4,5.86-.65,5.86-1.67,6.45-2.96,7.62-4.85,9.96-8.14,15.23-14.72,18.16-17.2,9.96-7.49,8.2-4.47,6.45-2.23,5.86-.97,5.86.08,5.86,1.12,6.45,2.39,7.03,3.88,8.79,6.45,11.72,10.6,31.05,29.16,9.38,6.22,7.62,3.44,6.45,1.62,5.86.39,5.86-.66,5.86-1.68,6.45-2.97,7.62-4.86,9.96-8.15,15.82-15.31,17.58-16.61,9.96-7.48,8.2-4.46,6.45-2.22,5.86-.96,5.86.09,5.86,1.13,6.45,2.4,7.03,3.89,8.79,6.46,11.72,10.61,31.05,29.14,8.79,5.88,7.62,3.55,6.45,1.72,5.64.48,6.08-.56,5.86-1.59,6.45-2.88,7.62-4.77,9.38-7.53,14.65-14.02,19.92-18.94,9.96-7.47,8.2-4.44,6.45-2.21,5.86-.95,5.86.1,5.86,1.14,6.45,2.41,1.17.56"/>
  </g>
  <g id="sketch-017ca223-5">
    <path class="cls-1" d="m0,1144.53h0l9.96,7.82,7.03,3.88,5.86,1.95,5.27.67,5.27-.39,5.27-1.43,5.86-2.74,7.03-4.7,9.38-8.08,31.05-28.36,7.03-3.93,5.86-2,5.27-.71,5.27.35,5.27,1.39,5.86,2.7,7.03,4.65,9.38,8.04,31.64,28.81,7.03,3.84,5.86,1.92,5.27.64,5.27-.42,5.27-1.46,5.86-2.77,7.03-4.73,9.38-8.11,30.47-27.93,7.03-4.02,5.86-2.08,5.27-.8,5.27.26,5.27,1.31,5.86,2.61,7.03,4.57,9.38,7.96,32.23,29.31,7.03,3.81,5.86,1.88,5.27.61,5.27-.45,5.27-1.49,5.86-2.8,7.03-4.76,9.38-8.13,30.47-27.88,7.03-3.99,5.86-2.05,5.27-.76,5.27.29,5.27,1.34,5.86,2.65,7.03,4.6,9.38,7.99,32.23,29.27,7.03,3.77,5.86,1.85,5.49.57,5.05-.49,5.27-1.52,5.86-2.84,7.03-4.79,9.38-8.16,29.88-27.44,7.62-4.35,5.86-2.02,5.27-.73,5.27.33,5.27,1.37,5.86,2.68,7.03,4.63,9.38,8.02,31.64,28.84,7.03,3.87,5.86,1.94,5.27.66,5.27-.4,5.27-1.44,5.86-2.75,7.03-4.71,9.38-8.09,31.05-28.35,7.03-3.91,5.86-1.98,5.27-.7,5.27.36,5.27,1.4,5.86,2.71,7.03,4.67,9.38,8.05,31.05,28.41,7.03,3.96,5.86,2.03,5.27.74,5.27-.31,5.27-1.36,5.86-2.67,7.03-4.62,9.38-8.01,31.64-28.85,7.03-3.88,5.86-1.95,5.27-.67,5.27.39,5.27,1.43,5.86,2.74,7.03,4.7,9.38,8.08,31.05,28.36,7.03,3.92,5.86,1.99,5.27.71,5.27-.35,5.27-1.39,5.86-2.7,7.03-4.66,9.38-8.04,31.64-28.81,7.03-3.84,5.86-1.92,5.27-.64,5.27.42,5.27,1.46,5.86,2.77,7.03,4.73,9.38,8.11,30.47,27.92,7.03,4.02,5.86,2.08,5.27.8,5.27-.26,5.27-1.31,5.86-2.62,7.03-4.57,9.38-7.96,32.23-29.31,7.03-3.81,5.86-1.88,5.27-.6,5.27.45,5.27,1.49,5.86,2.81,7.03,4.76,9.38,8.14,30.47,27.88,7.03,3.98,5.86,2.05,5.27.76,5.27-.29,5.27-1.34,5.86-2.65,7.03-4.6,9.38-7.99,32.23-29.27,7.03-3.77,5.86-1.85,5.49-.57,5.06.49,5.27,1.53,5.86,2.84,7.03,4.79,9.38,8.16,29.88,27.44,7.62,4.34,5.86,2.02,5.27.73,5.27-.33,5.27-1.37,5.86-2.68,7.03-4.64,9.38-8.02,31.64-28.84,7.03-3.86,5.86-1.94,5.27-.66,5.27.4,5.27,1.44,5.86,2.75,7.03,4.71,9.38,8.09,31.05,28.35,7.03,3.91,5.86,1.98,5.27.7,5.27-.36,5.27-1.4,5.86-2.71,7.03-4.67,9.38-8.05,31.05-28.4,7.03-3.96,5.86-2.03,5.27-.74,5.27.32,5.27,1.36,5.86,2.67,7.03,4.62,9.38,8.01,31.64,28.85,7.03,3.88,5.86,1.95,5.27.67,5.27-.39,5.27-1.43,5.86-2.74,7.03-4.7,9.38-8.08,31.05-28.36,7.03-3.92,5.86-1.99,5.27-.71,5.27.35,5.27,1.39,5.86,2.7,7.03,4.66,9.38,8.04,31.64,28.81,7.03,3.84,5.86,1.91,5.27.63,5.27-.42,5.27-1.47,5.86-2.78,7.03-4.73,9.38-8.11,30.47-27.92,7.03-4.02,5.86-2.08,5.27-.79,5.27.26,5.27,1.31,5.86,2.62,7.03,4.57,9.38,7.96,32.23,29.31,7.03,3.8,5.86,1.88,5.27.6,5.27-.46,5.27-1.5,5.86-2.81,7.03-4.76,9.38-8.14,30.47-27.88,7.03-3.98,5.86-2.05,5.27-.76,5.27.3,5.27,1.34,5.86,2.65,7.03,4.6,9.38,7.99,32.23,29.26,7.03,3.77,5.86,1.85,5.48.57,5.07-.49,5.27-1.53,5.86-2.84,7.03-4.79,9.38-8.16,29.88-27.44,5.86-3.5"/>
  </g>
  <g id="sketch-017ca223-6">
    <path class="cls-3" d="m0,1131.27h0l15.82,14.8,7.62,5.09,5.86,2.42,5.27.9,4.69-.26,4.69-1.25,5.27-2.52,6.45-4.46,9.38-8.42,21.09-19.61,7.03-4.34,5.86-2.13,4.69-.61,4.69.39,5.27,1.62,5.86,3.14,7.03,5.32,11.13,10.55,15.23,14.2,7.62,5.08,5.86,2.41,5.27.89,4.69-.27,4.69-1.26,5.27-2.53,6.45-4.47,9.38-8.42,21.09-19.6,7.03-4.33,5.86-2.12,4.69-.6,4.69.4,5.27,1.63,5.86,3.15,7.03,5.33,11.13,10.55,15.23,14.19,7.62,5.07,5.86,2.4,5.27.88,4.69-.28,4.69-1.27,5.27-2.54,6.45-4.48,9.38-8.43,21.09-19.59,7.03-4.32,5.86-2.11,4.69-.59,4.69.41,5.27,1.63,5.86,3.16,7.03,5.33,11.13,10.56,15.23,14.19,7.62,5.06,5.86,2.39,5.27.87,4.69-.29,4.69-1.28,5.27-2.54,6.45-4.49,9.38-8.44,20.51-19.15,7.03-4.45,5.86-2.24,5.27-.73,4.69.42,5.27,1.64,5.86,3.17,7.03,5.34,11.13,10.56,14.65,13.71,7.62,5.2,5.86,2.53,5.27,1,4.69-.17,4.69-1.16,5.27-2.43,6.45-4.37,8.79-7.77,22.85-21.13,7.03-4.15,5.27-1.82,4.69-.58,4.69.42,5.27,1.65,5.86,3.17,7.03,5.35,11.13,10.57,14.65,13.71,7.62,5.19,5.86,2.52,5.27,1,4.69-.18,4.69-1.17,5.27-2.43,6.45-4.38,8.79-7.78,22.85-21.12,7.03-4.14,5.27-1.81,4.69-.57,4.69.43,5.27,1.66,5.86,3.18,7.03,5.36,11.13,10.57,14.65,13.7,7.62,5.18,5.86,2.51,5.27.99,4.69-.19,4.69-1.18,5.27-2.44,6.45-4.38,9.38-8.35,21.68-20.13,7.03-4.28,5.86-2.07,4.98-.56,4.4.44,5.27,1.67,5.86,3.19,7.03,5.37,11.72,11.17,14.06,13.11,7.62,5.17,5.86,2.5,5.27.98,4.69-.19,4.69-1.19,5.27-2.45,6.45-4.39,9.38-8.36,21.68-20.12,7.03-4.27,5.86-2.06,4.94-.56,4.44.45,5.27,1.68,5.86,3.2,7.03,5.37,11.72,11.17,14.06,13.1,7.62,5.16,5.86,2.49,5.27.97,4.69-.2,4.69-1.19,5.27-2.46,6.45-4.4,9.38-8.36,21.68-20.11,7.03-4.26,5.86-2.05,4.9-.55,4.47.46,5.27,1.68,5.86,3.21,7.03,5.38,11.72,11.18,14.06,13.09,7.62,5.15,5.86,2.48,5.27.96,4.69-.21,4.69-1.2,5.27-2.47,6.45-4.41,9.38-8.37,21.68-20.1,7.03-4.25,5.86-2.04,4.87-.54,4.51.46,5.27,1.69,5.86,3.21,7.03,5.39,11.72,11.18,14.06,13.08,7.62,5.14,5.86,2.47,5.27.95,4.69-.22,4.69-1.21,5.27-2.47,6.45-4.42,9.38-8.38,21.09-19.66,7.03-4.39,5.86-2.18,4.69-.66,4.69.35,5.27,1.57,5.86,3.09,7.03,5.27,11.13,10.52,15.23,14.25,7.62,5.13,5.86,2.46,5.27.94,4.69-.22,4.69-1.22,5.27-2.48,6.45-4.42,9.38-8.38,21.09-19.65,7.03-4.38,5.86-2.17,4.69-.65,4.69.35,5.27,1.58,5.86,3.1,7.03,5.28,11.13,10.52,15.23,14.24,7.62,5.12,5.86,2.45,5.27.93,4.69-.23,4.69-1.22,5.27-2.49,6.45-4.43,9.38-8.39,21.09-19.64,7.03-4.37,5.86-2.16,4.69-.64,4.69.36,5.27,1.58,5.86,3.11,7.03,5.29,11.13,10.53,15.23,14.23,7.62,5.11,5.86,2.45,5.27.93,4.69-.24,4.69-1.23,5.27-2.5,6.45-4.44,9.38-8.4,21.09-19.63,7.03-4.36,5.86-2.15,4.69-.63,4.69.37,5.27,1.59,5.86,3.12,7.03,5.3,11.13,10.53,15.23,14.22,7.62,5.11,5.86,2.44,5.27.92,4.69-.25,4.69-1.24,5.27-2.51,6.45-4.45,9.38-8.4,21.09-19.63,7.03-4.35,5.86-2.14,4.69-.62,4.69.38,5.27,1.6,5.86,3.12,7.03,5.3,11.13,10.54,15.23,14.22,7.62,5.1,5.86,2.43,5.27.91,4.69-.26,4.69-1.25,5.27-2.51,6.45-4.45,9.38-8.41,21.09-19.62,7.03-4.34,5.86-2.13,4.69-.62,4.69.39,5.27,1.61,5.86,3.13,7.03,5.31,11.13,10.54,15.23,14.21,7.62,5.09,5.86,2.42,5.27.9,4.69-.26,4.69-1.25,5.27-2.52,6.45-4.46,9.38-8.42,21.09-19.61,7.03-4.34,5.86-2.13,4.69-.61,4.69.39,5.27,1.62,5.86,3.14,7.03,5.32,11.13,10.55,15.23,14.2,7.62,5.08,5.86,2.41,5.27.89,4.69-.27,4.69-1.26,5.27-2.53,6.45-4.47,9.38-8.42,4.69-4.65"/>
  </g>
</svg>